<svg version="1.1" xmlns="http://www.w3.org/2000/svg" xmlns:xlink="http://www.w3.org/1999/xlink" xmlns:a="http://ns.adobe.com/AdobeSVGViewerExtensions/3.0/" x="0px" y="0px" width="110.3px" height="39.7px" viewBox="0 0 110.3 39.7" xml:space="preserve" class="header-logo__svg"><g><path d="M18.9,30.3c-1.2-2.1-2.3-4-3.3-6c-0.1-0.3,0-0.8,0.2-1.1c1.7-2.5,3.2-5,3.9-8c1.2-4.7-1.8-8.7-6.5-8.9
                                c-3.3-0.1-8,3.4-6.7,8.4c0.3,1.2,0.7,2.4,1.3,3.4c2.8,4.9,5.6,9.8,8.5,14.7c0.3,0.6,0.3,1,0,1.5c-1.1,1.7-2.1,3.5-3.2,5.3
                                c-1.8-2.8-3.6-5.5-5.1-8.3C5.6,27.2,3.2,23,1.3,18.6c-3.6-8,0.8-16.5,9.4-18.4C16.4-1,24.7,2.7,26.2,10.8c0.4,2.3,0.3,4.6-0.4,6.9
                                C24.4,22.3,21.9,26.4,18.9,30.3z" class="st0"></path> <g><path d="M32.9,12c-0.5,0-0.9,0-1.4-0.1c0-0.8,0-1.6,0-2.5c0.3,0,0.5-0.1,0.8-0.1c2.3,0,4.6,0,6.9,0
                                    c2.9,0,4.8,2.2,4.8,5.3c0,3.1-2,5.3-4.9,5.3c-1,0-2.1,0-3.2,0c0,1.9,0,3.7,0,5.5c-1.1,0-2,0-3.1,0C32.9,20.9,32.9,16.4,32.9,12z
                                    M36,11.9c0,1.9,0,3.6,0,5.4c0.9,0,1.8,0.1,2.7,0c1.5-0.1,2.3-1.2,2.2-2.9c0-1.5-0.9-2.4-2.3-2.5C37.8,11.9,36.9,11.9,36,11.9z" class="st0"></path> <path d="M68.1,16.1c-0.3,0.5-0.8,0.9-1,1.5c-1.3,3.2-2.6,6.5-3.9,9.8c-1.3,3.1-4.7,4-7.2,1.8c0.4-0.7,0.7-1.3,1.1-2
                                    c2,1.2,3,0.8,3.7-1.1c0.1-0.3,0.1-0.8-0.1-1.1c-1.1-2.5-2.2-5.1-3.4-7.6c-0.2-0.4-0.6-0.7-1.1-0.9c0-0.7,0-1.5,0-2.4
                                    c0.8,0,1.7-0.1,2.4,0.1c0.4,0.1,0.9,0.7,1.1,1.1c0.9,2.1,1.7,4.3,2.6,6.6c0.7-2.1,1.4-4,2.1-6c0.7-1.9,0.7-1.9,2.7-1.9
                                    c0.4,0,0.7,0,1.1,0c0,0.9,0,1.6,0,2.4C68.2,16.2,68.1,16.1,68.1,16.1z" class="st0"></path> <path d="M56,23c0,0.8,0,1.6,0,2.3c-2.3,0.6-3.7,0.2-4.2-1.1c-1.6,1.6-3.5,2-5.3,1.2c-1.3-0.6-2-1.6-2-3
                                    c-0.1-1.5,0.5-2.6,1.8-3.1c1.4-0.5,2.9-0.7,4.4-1c0.3-0.1,0.6,0,0.9,0c0.2-1.3-0.3-2-1.4-2.2c-1.3-0.2-1.9,0.2-2.2,1.3
                                    c-0.8,0-1.6,0-2.5,0c-0.5-1.8,0-3,1.7-3.3c1.5-0.3,3-0.3,4.5-0.1c1.9,0.3,2.9,1.9,2.9,3.9c0,1.3,0.1,2.6,0,3.9
                                    C54.5,22.6,54.7,23.2,56,23z M51.6,20.2c-1.1,0.1-2,0.2-3,0.4c-1,0.2-1.4,0.9-1.2,1.7c0.2,0.8,1,1.2,2,1.1
                                    C50.7,23.2,51.6,21.9,51.6,20.2z" class="st0"></path> <path d="M82.4,25.7c-3.5,0-6.1-2.6-6.1-6.1c0-3.4,2.7-5.9,6.2-5.9c3.4,0,6,2.6,6,6C88.5,23.2,85.9,25.7,82.4,25.7z
                                    M78.1,19.7c0,2.6,1.9,4.6,4.3,4.6c2.5,0,4.5-2,4.5-4.6c0-2.5-1.9-4.4-4.3-4.5C80,15.3,78.1,17.1,78.1,19.7z" class="st0"></path> <path d="M89.5,15.3c0-0.4,0-0.8,0-1.2c0.1-0.1,0.2-0.1,0.3-0.1c2.6-0.2,2.8,0,2.8,2.6c0,1.6,0,3.2,0,4.9
                                    c0.1,2.4,1.6,3.4,3.8,2.5c1.9-0.8,2.7-2.3,2.7-4.2c0.1-1.9,0-3.7,0-5.6c0.5,0,1,0,1.6,0c0,1.7,0,3.3,0,4.9c0,1.2,0,2.3,0,3.5
                                    c0,1.5,0,1.5,1.5,1.7c0,0.4,0,0.8,0,1.1c-2.3,0.6-2.9,0.2-3.1-1.9c-1.2,1.7-2.8,2.5-4.9,2.3c-1.8-0.2-3-1.2-3.2-3.1
                                    C91,20.7,91,18.8,91,16.9C91,15.5,91,15.5,89.5,15.3z" class="st0"></path> <path d="M75.1,25.5c-2.8,0.4-4.6-1.1-4.6-3.8c0-1.8,0-3.5,0-5.3c0-0.4,0-0.7,0-1.1c-0.5,0-0.9-0.1-1.5-0.1
                                    c0-0.4,0-0.8,0-1.3c0.4,0,0.9-0.1,1.4-0.1c0-1,0-2,0-2.9c1.6-0.4,1.6-0.3,1.6,1.1c0,0.6,0,1.1,0,1.8c0.9,0,1.8,0,2.8,0
                                    c0,0.5,0,0.9,0,1.4c-0.9,0-1.7,0-2.7,0c0,2.4-0.1,4.7,0,6.9c0.1,1.6,1.4,2,2.9,1.9C75.1,24.6,75.1,25.1,75.1,25.5z" class="st0"></path> <path d="M106.2,16.3c1-1.7,2.1-2.6,4-2.3c0,0.5,0,0.9,0,1.4c-2.9,0.6-4.1,2-4.1,5.2c0,1.6,0,3.2,0,4.8
                                    c-0.5,0-1,0-1.6,0c0-1.6,0-3.1,0-4.7c0-1.2,0-2.3,0-3.5c0-1.6,0-1.6-1.5-1.9c0.1-0.5-0.4-1.1,0.5-1.3
                                    C105.6,13.7,106.1,14.1,106.2,16.3z" class="st0"></path></g></g></svg>